<mxfile host="app.diagrams.net" agent="Mozilla/5.0 (Windows NT 10.0; Win64; x64) AppleWebKit/537.36 (KHTML, like Gecko) Chrome/135.0.0.0 Safari/537.36 Edg/135.0.0.0" version="26.2.8" pages="2">
  <diagram name="Policy Code Layer" id="AXC7GD16YFuIkDpht7r0">
    <mxGraphModel dx="2811" dy="1126" grid="1" gridSize="10" guides="1" tooltips="1" connect="1" arrows="1" fold="1" page="1" pageScale="1" pageWidth="850" pageHeight="1100" math="0" shadow="0">
      <root>
        <mxCell id="0" />
        <mxCell id="1" parent="0" />
        <mxCell id="oHngoIIFHLGxF9ZTNB7t-2" value="&lt;font style=&quot;font-size: 36px;&quot;&gt;Presentation&lt;/font&gt;" style="text;html=1;align=center;verticalAlign=middle;whiteSpace=wrap;rounded=0;" vertex="1" parent="1">
          <mxGeometry x="-190" y="365" width="200" height="30" as="geometry" />
        </mxCell>
        <mxCell id="oHngoIIFHLGxF9ZTNB7t-3" value="" style="rounded=0;whiteSpace=wrap;html=1;dashed=1;dashPattern=1 4;fillColor=#dae8fc;strokeColor=#DAE8FC;" vertex="1" parent="1">
          <mxGeometry x="40" y="340" width="1490" height="80" as="geometry" />
        </mxCell>
        <mxCell id="oHngoIIFHLGxF9ZTNB7t-4" value="&lt;font style=&quot;font-size: 36px;&quot;&gt;Application&lt;/font&gt;" style="text;html=1;align=center;verticalAlign=middle;whiteSpace=wrap;rounded=0;" vertex="1" parent="1">
          <mxGeometry x="-200" y="560" width="200" height="30" as="geometry" />
        </mxCell>
        <mxCell id="oHngoIIFHLGxF9ZTNB7t-6" value="&lt;font style=&quot;font-size: 36px;&quot;&gt;Infra/DAO&lt;/font&gt;" style="text;html=1;align=center;verticalAlign=middle;whiteSpace=wrap;rounded=0;" vertex="1" parent="1">
          <mxGeometry x="-200" y="870" width="200" height="30" as="geometry" />
        </mxCell>
        <mxCell id="oHngoIIFHLGxF9ZTNB7t-10" value="" style="rounded=0;whiteSpace=wrap;html=1;dashed=1;dashPattern=1 4;fillColor=#dae8fc;strokeColor=#DAE8FC;" vertex="1" parent="1">
          <mxGeometry x="40" y="835" width="1490" height="355" as="geometry" />
        </mxCell>
        <mxCell id="oHngoIIFHLGxF9ZTNB7t-11" value="" style="rounded=0;whiteSpace=wrap;html=1;dashed=1;dashPattern=1 4;fillColor=#dae8fc;strokeColor=#DAE8FC;" vertex="1" parent="1">
          <mxGeometry x="40" y="450" width="1490" height="350" as="geometry" />
        </mxCell>
        <mxCell id="oHngoIIFHLGxF9ZTNB7t-27" style="edgeStyle=orthogonalEdgeStyle;rounded=0;orthogonalLoop=1;jettySize=auto;html=1;entryX=0.5;entryY=0;entryDx=0;entryDy=0;" edge="1" parent="1" source="oHngoIIFHLGxF9ZTNB7t-9" target="oHngoIIFHLGxF9ZTNB7t-13">
          <mxGeometry relative="1" as="geometry" />
        </mxCell>
        <mxCell id="oHngoIIFHLGxF9ZTNB7t-28" style="edgeStyle=orthogonalEdgeStyle;rounded=0;orthogonalLoop=1;jettySize=auto;html=1;" edge="1" parent="1" source="oHngoIIFHLGxF9ZTNB7t-9" target="oHngoIIFHLGxF9ZTNB7t-12">
          <mxGeometry relative="1" as="geometry" />
        </mxCell>
        <mxCell id="oHngoIIFHLGxF9ZTNB7t-30" style="edgeStyle=orthogonalEdgeStyle;rounded=0;orthogonalLoop=1;jettySize=auto;html=1;entryX=0.5;entryY=0;entryDx=0;entryDy=0;" edge="1" parent="1" source="oHngoIIFHLGxF9ZTNB7t-9" target="oHngoIIFHLGxF9ZTNB7t-17">
          <mxGeometry relative="1" as="geometry" />
        </mxCell>
        <mxCell id="oHngoIIFHLGxF9ZTNB7t-31" style="edgeStyle=orthogonalEdgeStyle;rounded=0;orthogonalLoop=1;jettySize=auto;html=1;entryX=1;entryY=0.5;entryDx=0;entryDy=0;" edge="1" parent="1" source="oHngoIIFHLGxF9ZTNB7t-9" target="oHngoIIFHLGxF9ZTNB7t-19">
          <mxGeometry relative="1" as="geometry" />
        </mxCell>
        <mxCell id="oHngoIIFHLGxF9ZTNB7t-32" style="edgeStyle=orthogonalEdgeStyle;rounded=0;orthogonalLoop=1;jettySize=auto;html=1;entryX=1;entryY=0.5;entryDx=0;entryDy=0;" edge="1" parent="1" source="oHngoIIFHLGxF9ZTNB7t-9" target="oHngoIIFHLGxF9ZTNB7t-18">
          <mxGeometry relative="1" as="geometry" />
        </mxCell>
        <mxCell id="oHngoIIFHLGxF9ZTNB7t-33" style="edgeStyle=orthogonalEdgeStyle;rounded=0;orthogonalLoop=1;jettySize=auto;html=1;entryX=1;entryY=0.5;entryDx=0;entryDy=0;" edge="1" parent="1" source="oHngoIIFHLGxF9ZTNB7t-9" target="oHngoIIFHLGxF9ZTNB7t-15">
          <mxGeometry relative="1" as="geometry" />
        </mxCell>
        <mxCell id="oHngoIIFHLGxF9ZTNB7t-34" style="edgeStyle=orthogonalEdgeStyle;rounded=0;orthogonalLoop=1;jettySize=auto;html=1;entryX=0.5;entryY=0;entryDx=0;entryDy=0;" edge="1" parent="1" source="oHngoIIFHLGxF9ZTNB7t-9" target="oHngoIIFHLGxF9ZTNB7t-20">
          <mxGeometry relative="1" as="geometry" />
        </mxCell>
        <mxCell id="oHngoIIFHLGxF9ZTNB7t-36" style="edgeStyle=orthogonalEdgeStyle;rounded=0;orthogonalLoop=1;jettySize=auto;html=1;entryX=1;entryY=0.5;entryDx=0;entryDy=0;" edge="1" parent="1" source="oHngoIIFHLGxF9ZTNB7t-9" target="oHngoIIFHLGxF9ZTNB7t-35">
          <mxGeometry relative="1" as="geometry" />
        </mxCell>
        <mxCell id="oHngoIIFHLGxF9ZTNB7t-9" value="ProvisionPolicyController" style="rounded=1;whiteSpace=wrap;html=1;dashed=1;fontSize=17;" vertex="1" parent="1">
          <mxGeometry x="460" y="360" width="610" height="145" as="geometry" />
        </mxCell>
        <mxCell id="oHngoIIFHLGxF9ZTNB7t-46" style="edgeStyle=orthogonalEdgeStyle;rounded=0;orthogonalLoop=1;jettySize=auto;html=1;entryX=0.5;entryY=0;entryDx=0;entryDy=0;" edge="1" parent="1" source="oHngoIIFHLGxF9ZTNB7t-12" target="oHngoIIFHLGxF9ZTNB7t-23">
          <mxGeometry relative="1" as="geometry">
            <Array as="points">
              <mxPoint x="695" y="740" />
              <mxPoint x="1000" y="740" />
            </Array>
          </mxGeometry>
        </mxCell>
        <mxCell id="oHngoIIFHLGxF9ZTNB7t-47" style="edgeStyle=orthogonalEdgeStyle;rounded=0;orthogonalLoop=1;jettySize=auto;html=1;entryX=0.5;entryY=0;entryDx=0;entryDy=0;" edge="1" parent="1" source="oHngoIIFHLGxF9ZTNB7t-12" target="oHngoIIFHLGxF9ZTNB7t-26">
          <mxGeometry relative="1" as="geometry" />
        </mxCell>
        <mxCell id="oHngoIIFHLGxF9ZTNB7t-48" style="edgeStyle=orthogonalEdgeStyle;rounded=0;orthogonalLoop=1;jettySize=auto;html=1;entryX=0.5;entryY=0;entryDx=0;entryDy=0;" edge="1" parent="1" source="oHngoIIFHLGxF9ZTNB7t-12" target="oHngoIIFHLGxF9ZTNB7t-25">
          <mxGeometry relative="1" as="geometry" />
        </mxCell>
        <mxCell id="oHngoIIFHLGxF9ZTNB7t-49" style="edgeStyle=orthogonalEdgeStyle;rounded=0;orthogonalLoop=1;jettySize=auto;html=1;entryX=0.5;entryY=0;entryDx=0;entryDy=0;" edge="1" parent="1" source="oHngoIIFHLGxF9ZTNB7t-12" target="oHngoIIFHLGxF9ZTNB7t-24">
          <mxGeometry relative="1" as="geometry" />
        </mxCell>
        <mxCell id="oHngoIIFHLGxF9ZTNB7t-12" value="PolicyService" style="rounded=1;whiteSpace=wrap;html=1;dashed=1;fontSize=17;" vertex="1" parent="1">
          <mxGeometry x="490" y="550" width="410" height="160" as="geometry" />
        </mxCell>
        <mxCell id="oHngoIIFHLGxF9ZTNB7t-40" style="edgeStyle=orthogonalEdgeStyle;rounded=0;orthogonalLoop=1;jettySize=auto;html=1;entryX=0.5;entryY=0;entryDx=0;entryDy=0;" edge="1" parent="1" source="oHngoIIFHLGxF9ZTNB7t-13" target="oHngoIIFHLGxF9ZTNB7t-23">
          <mxGeometry relative="1" as="geometry">
            <Array as="points">
              <mxPoint x="230" y="740" />
              <mxPoint x="1000" y="740" />
            </Array>
          </mxGeometry>
        </mxCell>
        <mxCell id="oHngoIIFHLGxF9ZTNB7t-41" style="edgeStyle=orthogonalEdgeStyle;rounded=0;orthogonalLoop=1;jettySize=auto;html=1;entryX=0.5;entryY=0;entryDx=0;entryDy=0;" edge="1" parent="1" source="oHngoIIFHLGxF9ZTNB7t-13" target="oHngoIIFHLGxF9ZTNB7t-21">
          <mxGeometry relative="1" as="geometry">
            <Array as="points">
              <mxPoint x="230" y="740" />
              <mxPoint x="1050" y="740" />
            </Array>
          </mxGeometry>
        </mxCell>
        <mxCell id="oHngoIIFHLGxF9ZTNB7t-42" style="edgeStyle=orthogonalEdgeStyle;rounded=0;orthogonalLoop=1;jettySize=auto;html=1;entryX=0.5;entryY=0;entryDx=0;entryDy=0;" edge="1" parent="1" source="oHngoIIFHLGxF9ZTNB7t-13" target="oHngoIIFHLGxF9ZTNB7t-22">
          <mxGeometry relative="1" as="geometry">
            <Array as="points">
              <mxPoint x="230" y="740" />
              <mxPoint x="1100" y="740" />
            </Array>
          </mxGeometry>
        </mxCell>
        <mxCell id="oHngoIIFHLGxF9ZTNB7t-43" style="edgeStyle=orthogonalEdgeStyle;rounded=0;orthogonalLoop=1;jettySize=auto;html=1;entryX=0;entryY=0.5;entryDx=0;entryDy=0;" edge="1" parent="1" source="oHngoIIFHLGxF9ZTNB7t-13" target="oHngoIIFHLGxF9ZTNB7t-12">
          <mxGeometry relative="1" as="geometry" />
        </mxCell>
        <mxCell id="oHngoIIFHLGxF9ZTNB7t-44" style="edgeStyle=orthogonalEdgeStyle;rounded=0;orthogonalLoop=1;jettySize=auto;html=1;entryX=0.5;entryY=0;entryDx=0;entryDy=0;" edge="1" parent="1" source="oHngoIIFHLGxF9ZTNB7t-13" target="oHngoIIFHLGxF9ZTNB7t-17">
          <mxGeometry relative="1" as="geometry">
            <Array as="points">
              <mxPoint x="230" y="740" />
              <mxPoint x="1150" y="740" />
            </Array>
          </mxGeometry>
        </mxCell>
        <mxCell id="oHngoIIFHLGxF9ZTNB7t-45" style="edgeStyle=orthogonalEdgeStyle;rounded=0;orthogonalLoop=1;jettySize=auto;html=1;" edge="1" parent="1" source="oHngoIIFHLGxF9ZTNB7t-13">
          <mxGeometry relative="1" as="geometry">
            <mxPoint x="1200" y="759.9999999999998" as="targetPoint" />
            <Array as="points">
              <mxPoint x="230" y="740" />
              <mxPoint x="1200" y="740" />
            </Array>
          </mxGeometry>
        </mxCell>
        <mxCell id="oHngoIIFHLGxF9ZTNB7t-13" value="ValidationService" style="rounded=1;whiteSpace=wrap;html=1;dashed=1;fontSize=17;" vertex="1" parent="1">
          <mxGeometry x="70" y="550" width="320" height="160" as="geometry" />
        </mxCell>
        <mxCell id="oHngoIIFHLGxF9ZTNB7t-15" value="PolicyAssignmentRepo" style="rounded=1;whiteSpace=wrap;html=1;dashed=1;fontSize=17;" vertex="1" parent="1">
          <mxGeometry x="60" y="920" width="190" height="70" as="geometry" />
        </mxCell>
        <mxCell id="oHngoIIFHLGxF9ZTNB7t-17" value="ImageService" style="rounded=1;html=1;dashed=1;flipV=1;flipH=1;whiteSpace=wrap;textDirection=vertical-lr;fontSize=17;" vertex="1" parent="1">
          <mxGeometry x="1130" y="760" width="40" height="140" as="geometry" />
        </mxCell>
        <mxCell id="oHngoIIFHLGxF9ZTNB7t-18" value="ComposedAssignmentRepo" style="rounded=1;whiteSpace=wrap;html=1;dashed=1;fontSize=17;" vertex="1" parent="1">
          <mxGeometry x="60" y="840" width="190" height="70" as="geometry" />
        </mxCell>
        <mxCell id="oHngoIIFHLGxF9ZTNB7t-19" value="PolicyRepo" style="rounded=1;whiteSpace=wrap;html=1;dashed=1;fontSize=17;" vertex="1" parent="1">
          <mxGeometry x="60" y="1000" width="190" height="70" as="geometry" />
        </mxCell>
        <mxCell id="oHngoIIFHLGxF9ZTNB7t-20" value="MMDService" style="rounded=1;whiteSpace=wrap;html=1;dashed=1;textDirection=vertical-lr;fontSize=17;" vertex="1" parent="1">
          <mxGeometry x="1180" y="760" width="40" height="140" as="geometry" />
        </mxCell>
        <mxCell id="oHngoIIFHLGxF9ZTNB7t-21" value="IntuneService" style="rounded=1;html=1;dashed=1;flipV=1;flipH=1;whiteSpace=wrap;textDirection=vertical-lr;fontSize=17;" vertex="1" parent="1">
          <mxGeometry x="1030" y="760" width="40" height="140" as="geometry" />
        </mxCell>
        <mxCell id="oHngoIIFHLGxF9ZTNB7t-22" value="CapacityService" style="rounded=1;html=1;dashed=1;flipV=1;flipH=1;whiteSpace=wrap;textDirection=vertical-lr;fontSize=17;" vertex="1" parent="1">
          <mxGeometry x="1080" y="760" width="40" height="140" as="geometry" />
        </mxCell>
        <mxCell id="oHngoIIFHLGxF9ZTNB7t-23" value="AzureService" style="rounded=1;html=1;dashed=1;flipV=1;flipH=1;whiteSpace=wrap;textDirection=vertical-lr;fontSize=17;" vertex="1" parent="1">
          <mxGeometry x="980" y="760" width="40" height="140" as="geometry" />
        </mxCell>
        <mxCell id="oHngoIIFHLGxF9ZTNB7t-24" value="PolicyProcessor" style="rounded=1;whiteSpace=wrap;html=1;dashed=1;textDirection=vertical-lr;fontSize=17;" vertex="1" parent="1">
          <mxGeometry x="1440" y="790" width="40" height="180" as="geometry" />
        </mxCell>
        <mxCell id="oHngoIIFHLGxF9ZTNB7t-25" value="NotificationProcessor" style="rounded=1;whiteSpace=wrap;html=1;dashed=1;textDirection=vertical-lr;fontSize=17;" vertex="1" parent="1">
          <mxGeometry x="1370" y="790" width="60" height="180" as="geometry" />
        </mxCell>
        <mxCell id="oHngoIIFHLGxF9ZTNB7t-26" value="NetworkReferenceProcessor" style="rounded=1;whiteSpace=wrap;html=1;dashed=1;textDirection=vertical-lr;fontSize=17;" vertex="1" parent="1">
          <mxGeometry x="1260" y="790" width="100" height="180" as="geometry" />
        </mxCell>
        <mxCell id="oHngoIIFHLGxF9ZTNB7t-35" value="....." style="rounded=1;whiteSpace=wrap;html=1;dashed=1;fontSize=17;" vertex="1" parent="1">
          <mxGeometry x="60" y="1080" width="190" height="70" as="geometry" />
        </mxCell>
        <mxCell id="oHngoIIFHLGxF9ZTNB7t-51" value="&lt;div&gt;&lt;span style=&quot;background-color: transparent; color: light-dark(rgb(0, 0, 0), rgb(255, 255, 255));&quot;&gt;Model Convert&lt;/span&gt;&lt;/div&gt;&lt;div&gt;&lt;font&gt;Authentication&lt;/font&gt;&lt;/div&gt;&lt;div&gt;&lt;span&gt;Syntax Verify&lt;/span&gt;&lt;/div&gt;" style="text;html=1;align=left;verticalAlign=middle;whiteSpace=wrap;rounded=0;fontSize=18;" vertex="1" parent="1">
          <mxGeometry x="-190" y="410" width="190" height="50" as="geometry" />
        </mxCell>
        <mxCell id="oHngoIIFHLGxF9ZTNB7t-52" value="&lt;div&gt;&lt;span&gt;Business Validation&lt;/span&gt;&lt;/div&gt;&lt;div&gt;&lt;span&gt;Business Logic&lt;/span&gt;&lt;/div&gt;&lt;div&gt;&lt;span&gt;Flighting Control&lt;/span&gt;&lt;/div&gt;" style="text;html=1;align=left;verticalAlign=middle;whiteSpace=wrap;rounded=0;fontSize=18;" vertex="1" parent="1">
          <mxGeometry x="-190" y="610" width="190" height="50" as="geometry" />
        </mxCell>
        <mxCell id="oHngoIIFHLGxF9ZTNB7t-53" value="&lt;div&gt;&lt;span&gt;Database Access&lt;/span&gt;&lt;/div&gt;&lt;div&gt;&lt;span&gt;Network Access&lt;/span&gt;&lt;/div&gt;&lt;div&gt;&lt;span&gt;Message Publish&lt;/span&gt;&lt;/div&gt;" style="text;html=1;align=left;verticalAlign=middle;whiteSpace=wrap;rounded=0;fontSize=18;" vertex="1" parent="1">
          <mxGeometry x="-180" y="920" width="190" height="50" as="geometry" />
        </mxCell>
      </root>
    </mxGraphModel>
  </diagram>
  <diagram id="503QoGO1QLI1ZpJaDoVd" name="Version Management">
    <mxGraphModel dx="1144" dy="657" grid="1" gridSize="10" guides="1" tooltips="1" connect="1" arrows="1" fold="1" page="1" pageScale="1" pageWidth="850" pageHeight="1100" math="0" shadow="0">
      <root>
        <mxCell id="0" />
        <mxCell id="1" parent="0" />
        <mxCell id="wNpXnhFg0i9odnBBl2vq-11" style="edgeStyle=orthogonalEdgeStyle;rounded=0;orthogonalLoop=1;jettySize=auto;html=1;entryX=0;entryY=0.5;entryDx=0;entryDy=0;" edge="1" parent="1" source="wNpXnhFg0i9odnBBl2vq-2" target="wNpXnhFg0i9odnBBl2vq-3">
          <mxGeometry relative="1" as="geometry" />
        </mxCell>
        <mxCell id="wNpXnhFg0i9odnBBl2vq-2" value="Update Policy" style="rounded=1;whiteSpace=wrap;html=1;" vertex="1" parent="1">
          <mxGeometry x="360" y="370" width="120" height="60" as="geometry" />
        </mxCell>
        <mxCell id="wNpXnhFg0i9odnBBl2vq-12" style="edgeStyle=orthogonalEdgeStyle;rounded=0;orthogonalLoop=1;jettySize=auto;html=1;entryX=0;entryY=0.5;entryDx=0;entryDy=0;" edge="1" parent="1" source="wNpXnhFg0i9odnBBl2vq-3" target="wNpXnhFg0i9odnBBl2vq-4">
          <mxGeometry relative="1" as="geometry" />
        </mxCell>
        <mxCell id="wNpXnhFg0i9odnBBl2vq-13" style="edgeStyle=orthogonalEdgeStyle;rounded=0;orthogonalLoop=1;jettySize=auto;html=1;entryX=0;entryY=0.5;entryDx=0;entryDy=0;" edge="1" parent="1" source="wNpXnhFg0i9odnBBl2vq-3" target="wNpXnhFg0i9odnBBl2vq-8">
          <mxGeometry relative="1" as="geometry" />
        </mxCell>
        <mxCell id="wNpXnhFg0i9odnBBl2vq-3" value="Policy Entity Increase" style="rounded=1;whiteSpace=wrap;html=1;" vertex="1" parent="1">
          <mxGeometry x="520" y="370" width="120" height="60" as="geometry" />
        </mxCell>
        <mxCell id="wNpXnhFg0i9odnBBl2vq-14" style="edgeStyle=orthogonalEdgeStyle;rounded=0;orthogonalLoop=1;jettySize=auto;html=1;entryX=0;entryY=0.5;entryDx=0;entryDy=0;" edge="1" parent="1" source="wNpXnhFg0i9odnBBl2vq-4" target="wNpXnhFg0i9odnBBl2vq-7">
          <mxGeometry relative="1" as="geometry" />
        </mxCell>
        <mxCell id="wNpXnhFg0i9odnBBl2vq-15" style="edgeStyle=orthogonalEdgeStyle;rounded=0;orthogonalLoop=1;jettySize=auto;html=1;entryX=0;entryY=0.5;entryDx=0;entryDy=0;" edge="1" parent="1" source="wNpXnhFg0i9odnBBl2vq-4" target="wNpXnhFg0i9odnBBl2vq-6">
          <mxGeometry relative="1" as="geometry" />
        </mxCell>
        <mxCell id="wNpXnhFg0i9odnBBl2vq-4" value="Group Policy Assignment 0 Entity Increase" style="rounded=1;whiteSpace=wrap;html=1;" vertex="1" parent="1">
          <mxGeometry x="680" y="240" width="120" height="60" as="geometry" />
        </mxCell>
        <mxCell id="wNpXnhFg0i9odnBBl2vq-6" value="User Policy Assignment 1 Entity Increase" style="rounded=1;whiteSpace=wrap;html=1;" vertex="1" parent="1">
          <mxGeometry x="840" y="310" width="120" height="60" as="geometry" />
        </mxCell>
        <mxCell id="wNpXnhFg0i9odnBBl2vq-7" value="User Policy Assignment 0 Entity Increase" style="rounded=1;whiteSpace=wrap;html=1;" vertex="1" parent="1">
          <mxGeometry x="840" y="170" width="120" height="60" as="geometry" />
        </mxCell>
        <mxCell id="wNpXnhFg0i9odnBBl2vq-16" style="edgeStyle=orthogonalEdgeStyle;rounded=0;orthogonalLoop=1;jettySize=auto;html=1;entryX=0;entryY=0.5;entryDx=0;entryDy=0;" edge="1" parent="1" source="wNpXnhFg0i9odnBBl2vq-8" target="wNpXnhFg0i9odnBBl2vq-10">
          <mxGeometry relative="1" as="geometry" />
        </mxCell>
        <mxCell id="wNpXnhFg0i9odnBBl2vq-17" style="edgeStyle=orthogonalEdgeStyle;rounded=0;orthogonalLoop=1;jettySize=auto;html=1;entryX=0;entryY=0.5;entryDx=0;entryDy=0;" edge="1" parent="1" source="wNpXnhFg0i9odnBBl2vq-8" target="wNpXnhFg0i9odnBBl2vq-9">
          <mxGeometry relative="1" as="geometry" />
        </mxCell>
        <mxCell id="wNpXnhFg0i9odnBBl2vq-8" value="Group Policy Assignment 1 Entity Increase" style="rounded=1;whiteSpace=wrap;html=1;" vertex="1" parent="1">
          <mxGeometry x="680" y="500" width="120" height="60" as="geometry" />
        </mxCell>
        <mxCell id="wNpXnhFg0i9odnBBl2vq-9" value="User Policy Assignment 3 Entity Increase" style="rounded=1;whiteSpace=wrap;html=1;" vertex="1" parent="1">
          <mxGeometry x="840" y="570" width="120" height="60" as="geometry" />
        </mxCell>
        <mxCell id="wNpXnhFg0i9odnBBl2vq-10" value="User Policy Assignment 2 Entity Increase" style="rounded=1;whiteSpace=wrap;html=1;" vertex="1" parent="1">
          <mxGeometry x="840" y="430" width="120" height="60" as="geometry" />
        </mxCell>
      </root>
    </mxGraphModel>
  </diagram>
</mxfile>
